<?xml version="1.0" encoding="utf-8"?>
<!-- Generator: Adobe Illustrator 16.0.0, SVG Export Plug-In . SVG Version: 6.00 Build 0)  -->
<!DOCTYPE svg PUBLIC "-//W3C//DTD SVG 1.1//EN" "http://www.w3.org/Graphics/SVG/1.1/DTD/svg11.dtd">
<svg version="1.1" id="Capa_1" xmlns="http://www.w3.org/2000/svg" xmlns:xlink="http://www.w3.org/1999/xlink" x="0px" y="0px"
	 width="32px" height="32px" viewBox="0 0 32 32" enable-background="new 0 0 32 32" xml:space="preserve">
<path fill="#EF6565" d="M27.5,15c0,3.72-2.58,7.72-5.52,10.39C19.91,27.28,17.65,28.5,16,28.5c-1.65,0-3.91-1.22-5.98-3.11
	C7.08,22.72,4.5,18.72,4.5,15c0-3.84,1.88-6.88,4.78-8.67C11.17,5.15,13.49,4.5,16,4.5s4.83,0.65,6.72,1.83
	C25.62,8.12,27.5,11.16,27.5,15z"/>
<path fill="#AAAAAA" d="M17.5,16.5c0,0,0,4,3,4c4,0,3-8,3-8S22.594,14.75,17.5,16.5z"/>
<path fill="#AAAAAA" d="M14.5,16.5c0,0,0,4-3,4c-4,0-3-8-3-8S10.313,16.031,14.5,16.5z"/>
<path opacity="0.4" fill="#4D5152" d="M17.5,16.5c0,0,0,4,3,4c4,0,3-8,3-8S22.594,14.75,17.5,16.5z"/>
<path opacity="0.4" fill="#4D5152" d="M14.5,16.5c0,0,0,4-3,4c-4,0-3-8-3-8S10.313,16.031,14.5,16.5z"/>
<path fill="none" stroke="#4D5152" stroke-miterlimit="10" d="M27.5,15c0-6.352-5.148-10.5-11.5-10.5C9.648,4.5,4.5,8.648,4.5,15
	c0,6.352,7.5,13.5,11.5,13.5S27.5,21.352,27.5,15z"/>
<path fill="none" stroke="#4D5152" stroke-linecap="round" stroke-linejoin="round" stroke-miterlimit="10" d="M19.5,23.5
	c0,0-0.783-1-3.5-1c-2.608,0-3.5,1-3.5,1"/>
<path fill="none" stroke="#4D5152" stroke-miterlimit="10" d="M14.5,16.5c0,0,0,4-3,4c-4,0-3-8-3-8"/>
<path fill="none" stroke="#4D5152" stroke-miterlimit="10" d="M17.5,16.5c0,0,0,4,3,4c4,0,3-8,3-8"/>
<path fill="none" stroke="#4D5152" stroke-linecap="round" stroke-miterlimit="10" d="M7.5,11.5c0,0,3.5,5,8.5,5s8.5-5,8.5-5"/>
</svg>
