<?xml version="1.0" encoding="utf-8"?>
<!-- Generator: Adobe Illustrator 16.0.0, SVG Export Plug-In . SVG Version: 6.00 Build 0)  -->
<!DOCTYPE svg PUBLIC "-//W3C//DTD SVG 1.1//EN" "http://www.w3.org/Graphics/SVG/1.1/DTD/svg11.dtd">
<svg version="1.1" id="Capa_1" xmlns="http://www.w3.org/2000/svg" xmlns:xlink="http://www.w3.org/1999/xlink" x="0px" y="0px"
	 width="32px" height="32px" viewBox="0 0 32 32" enable-background="new 0 0 32 32" xml:space="preserve">
<path fill="#BFBFBF" d="M27.5,15c0,3.72-2.58,7.72-5.52,10.39C19.91,27.28,17.65,28.5,16,28.5c-1.65,0-3.91-1.22-5.98-3.11
	C7.08,22.72,4.5,18.72,4.5,15c0-3.84,1.88-6.88,4.78-8.67C11.17,5.15,13.49,4.5,16,4.5s4.83,0.65,6.72,1.83
	C25.62,8.12,27.5,11.16,27.5,15z"/>
<path opacity="0.5" fill="#4D5152" d="M17.99,22.89l-0.15-0.199C17.36,22.58,16.75,22.5,16,22.5c-0.69,0-1.27,0.07-1.73,0.17
	l-0.26,0.51C14,23.12,14,23.06,14,23c0-1.1,0.9-3,2-3C17.06,20,17.94,21.78,17.99,22.89z"/>
<path fill="none" stroke="#4D5152" stroke-miterlimit="10" d="M27.5,15c0-6.352-5.148-10.5-11.5-10.5C9.648,4.5,4.5,8.648,4.5,15
	c0,6.352,7.5,13.5,11.5,13.5S27.5,21.352,27.5,15z"/>
<path fill="#F27C7C" d="M18,23c0,1.1-0.9,2-2,2c-1.04,0-1.9-0.8-1.99-1.82l0.26-0.51c0.46-0.1,1.04-0.17,1.73-0.17
	c0.75,0,1.36,0.08,1.84,0.19l0.15,0.199C18,22.93,18,22.96,18,23z"/>
<path fill="none" stroke="#4D5152" stroke-linecap="round" stroke-linejoin="round" stroke-miterlimit="10" d="M7.5,15.5
	c0,0-0.111,3,3,3s3-3,3-3"/>
<path fill="none" stroke="#4D5152" stroke-linecap="round" stroke-linejoin="round" stroke-miterlimit="10" d="M18.5,15.5
	c0,0-0.111,3,3,3s3-3,3-3"/>
<path fill="none" stroke="#4D5152" stroke-linecap="round" stroke-linejoin="round" stroke-miterlimit="10" d="M18,23
	c0-1.104-0.896-3-2-3s-2,1.896-2,3s0.896,2,2,2S18,24.104,18,23z"/>
<path fill="none" stroke="#4D5152" stroke-linecap="round" stroke-linejoin="round" stroke-miterlimit="10" d="M17.839,22.688
	C17.358,22.577,16.753,22.5,16,22.5c-0.694,0-1.267,0.07-1.733,0.174"/>
</svg>
