<?xml version="1.0" encoding="utf-8"?>
<!-- Generator: Adobe Illustrator 16.0.0, SVG Export Plug-In . SVG Version: 6.00 Build 0)  -->
<!DOCTYPE svg PUBLIC "-//W3C//DTD SVG 1.1//EN" "http://www.w3.org/Graphics/SVG/1.1/DTD/svg11.dtd">
<svg version="1.1" id="Capa_1" xmlns="http://www.w3.org/2000/svg" xmlns:xlink="http://www.w3.org/1999/xlink" x="0px" y="0px"
	 width="32px" height="32px" viewBox="0 0 32 32" enable-background="new 0 0 32 32" xml:space="preserve">
<g>
	<polygon fill="#ACF0F2" points="24.5,6.5 24.5,9.5 27.5,9.5 27.5,18.5 25.5,18.5 25.5,22.5 29.5,22.5 29.5,26.5 25.5,26.5 
		25.5,22.5 21.5,22.5 21.5,27.5 17.5,27.5 17.5,24.5 15.5,24.5 14.5,24.5 14.5,27.5 10.5,27.5 10.5,22.5 6.5,22.5 6.5,26.5 
		2.5,26.5 2.5,22.5 6.5,22.5 6.5,18.5 4.5,18.5 4.5,9.5 7.5,9.5 7.5,6.5 	"/>
</g>
<rect x="14.5" y="3.5" fill="#67DDE0" width="3" height="6"/>
<polygon fill="#67DDE0" points="7.5,12.5 7.5,16.5 10.5,16.5 10.5,19.5 14.5,19.5 14.5,14.5 12.5,14.5 12.5,12.5 7.5,12.5 "/>
<polygon fill="#67DDE0" points="24.5,12.5 24.5,16.5 21.5,16.5 21.5,19.5 17.5,19.5 17.5,14.5 19.5,14.5 19.5,12.5 24.5,12.5 "/>
<g>
	<polygon fill="none" stroke="#4D5152" stroke-miterlimit="10" points="24.5,6.5 24.5,9.5 27.5,9.5 27.5,18.5 25.5,18.5 25.5,22.5 
		29.5,22.5 29.5,26.5 25.5,26.5 25.5,22.5 21.5,22.5 21.5,27.5 17.5,27.5 17.5,24.5 15.5,24.5 14.5,24.5 14.5,27.5 10.5,27.5 
		10.5,22.5 6.5,22.5 6.5,26.5 2.5,26.5 2.5,22.5 6.5,22.5 6.5,18.5 4.5,18.5 4.5,9.5 7.5,9.5 7.5,6.5 	"/>
</g>
<rect x="14.5" y="3.5" fill="none" stroke="#4D5152" stroke-miterlimit="10" width="3" height="6"/>
<polygon fill="none" stroke="#4D5152" stroke-miterlimit="10" points="7.5,12.5 7.5,16.5 10.5,16.5 10.5,19.5 14.5,19.5 14.5,14.5 
	12.5,14.5 12.5,12.5 7.5,12.5 "/>
<polygon fill="none" stroke="#4D5152" stroke-miterlimit="10" points="24.5,12.5 24.5,16.5 21.5,16.5 21.5,19.5 17.5,19.5 
	17.5,14.5 19.5,14.5 19.5,12.5 24.5,12.5 "/>
</svg>
