<?xml version="1.0" encoding="utf-8"?>
<!-- Generator: Adobe Illustrator 16.0.0, SVG Export Plug-In . SVG Version: 6.00 Build 0)  -->
<!DOCTYPE svg PUBLIC "-//W3C//DTD SVG 1.1//EN" "http://www.w3.org/Graphics/SVG/1.1/DTD/svg11.dtd">
<svg version="1.1" id="Capa_1" xmlns="http://www.w3.org/2000/svg" xmlns:xlink="http://www.w3.org/1999/xlink" x="0px" y="0px"
	 width="32px" height="32px" viewBox="0 0 32 32" enable-background="new 0 0 32 32" xml:space="preserve">
<path fill="#A4FFBE" d="M27.5,15c0,3.72-2.58,7.72-5.52,10.39C19.91,27.28,17.65,28.5,16,28.5c-1.65,0-3.91-1.22-5.98-3.11
	C7.08,22.72,4.5,18.72,4.5,15c0-3.84,1.88-6.88,4.78-8.67C11.17,5.15,13.49,4.5,16,4.5s4.83,0.65,6.72,1.83
	C25.62,8.12,27.5,11.16,27.5,15z"/>
<path fill="none" stroke="#4D5152" stroke-miterlimit="10" d="M27.5,15c0-6.352-5.148-10.5-11.5-10.5C9.648,4.5,4.5,8.648,4.5,15
	c0,6.352,7.5,13.5,11.5,13.5S27.5,21.352,27.5,15z"/>
<path fill="none" stroke="#4D5152" stroke-linecap="round" stroke-linejoin="round" stroke-miterlimit="10" d="M7.5,17.5
	c0,0-0.111-3,3-3s3,3,3,3"/>
<path fill="none" stroke="#4D5152" stroke-linecap="round" stroke-linejoin="round" stroke-miterlimit="10" d="M18.5,17.5
	c0,0-0.111-3,3-3s3,3,3,3"/>
<path fill="#AAAAAA" d="M21.5,20.5c0,0.45-0.2,1.29-0.83,2.1c-0.76,0.98-2.18,1.9-4.67,1.9c-2.4,0-3.81-0.86-4.59-1.8
	c-0.69-0.83-0.91-1.73-0.91-2.2c0-1,1-1,1-1c1,0,9,0,9,0S21.5,19.5,21.5,20.5z"/>
<path fill="#FF61E1" d="M20.67,22.6c-0.76,0.98-2.18,1.9-4.67,1.9c-2.4,0-3.81-0.86-4.59-1.8l0.09-0.2c0,0,2-1,4.5-1s4.5,1,4.5,1
	L20.67,22.6z"/>
<path fill="none" stroke="#4D5152" stroke-miterlimit="10" d="M10.5,20.5c0-1,1-1,1-1c1,0,9,0,9,0s1,0,1,1s-1,4-5.5,4
	S10.5,21.5,10.5,20.5z"/>
<path fill="none" stroke="#4D5152" stroke-miterlimit="10" d="M11.5,22.5c0,0,2-1,4.5-1s4.5,1,4.5,1"/>
</svg>
