<?xml version="1.0" encoding="utf-8"?>
<!-- Generator: Adobe Illustrator 16.0.0, SVG Export Plug-In . SVG Version: 6.00 Build 0)  -->
<!DOCTYPE svg PUBLIC "-//W3C//DTD SVG 1.1//EN" "http://www.w3.org/Graphics/SVG/1.1/DTD/svg11.dtd">
<svg version="1.1" id="Capa_1" xmlns="http://www.w3.org/2000/svg" xmlns:xlink="http://www.w3.org/1999/xlink" x="0px" y="0px"
	 width="32px" height="32px" viewBox="0 0 32 32" enable-background="new 0 0 32 32" xml:space="preserve">
<path fill="#A4FFBE" d="M27.5,15c0-6.352-5.148-10.5-11.5-10.5S4.5,8.648,4.5,15c0,6.352,7.5,13.5,11.5,13.5S27.5,21.352,27.5,15z"
	/>
<path fill="none" stroke="#4D5152" stroke-miterlimit="10" d="M27.5,15c0-6.352-5.148-10.5-11.5-10.5S4.5,8.648,4.5,15
	c0,6.352,7.5,13.5,11.5,13.5S27.5,21.352,27.5,15z"/>
<path fill="#AAAAAA" d="M12.898,14.107c-1.678-1.678-4.27-2.121-5.594-0.799c-1.323,1.323-0.968,3.824,0.801,5.593
	c1.858,1.858,4.268,2.121,5.591,0.797C15.019,18.375,14.697,15.906,12.898,14.107z"/>
<path fill="#AAAAAA" d="M19.113,14.107c1.678-1.678,4.268-2.121,5.592-0.799c1.324,1.323,0.969,3.824-0.799,5.593
	c-1.859,1.858-4.269,2.121-5.592,0.797C16.992,18.375,17.313,15.906,19.113,14.107z"/>
<path opacity="0.4" fill="#4D5152" d="M12.898,14.107c-1.678-1.678-4.27-2.121-5.594-0.799c-1.323,1.323-0.968,3.824,0.801,5.593
	c1.858,1.858,4.268,2.121,5.591,0.797C15.019,18.375,14.697,15.906,12.898,14.107z"/>
<path opacity="0.4" fill="#4D5152" d="M19.113,14.107c1.678-1.678,4.268-2.121,5.592-0.799c1.324,1.323,0.969,3.824-0.799,5.593
	c-1.859,1.858-4.269,2.121-5.592,0.797C16.992,18.375,17.313,15.906,19.113,14.107z"/>
<path fill="none" stroke="#4D5152" stroke-miterlimit="10" d="M12.898,14.107c-1.678-1.678-4.27-2.121-5.594-0.799
	c-1.323,1.323-0.968,3.824,0.801,5.593c1.858,1.858,4.268,2.121,5.591,0.797C15.019,18.375,14.697,15.906,12.898,14.107z"/>
<path fill="none" stroke="#4D5152" stroke-miterlimit="10" d="M19.113,14.107c1.678-1.678,4.268-2.121,5.592-0.799
	c1.324,1.323,0.969,3.824-0.799,5.593c-1.859,1.858-4.269,2.121-5.592,0.797C16.992,18.375,17.313,15.906,19.113,14.107z"/>
<path fill="none" stroke="#4D5152" stroke-linecap="round" stroke-linejoin="round" stroke-miterlimit="10" d="M12,23c0,0,0-1,1-1
	s1,1,1,1s0,1,1,1s1-1,1-1s0-1,1-1s1,1,1,1s0,1,1,1s1-1,1-1"/>
</svg>
