<?xml version="1.0" encoding="utf-8"?>
<!-- Generator: Adobe Illustrator 16.0.0, SVG Export Plug-In . SVG Version: 6.00 Build 0)  -->
<!DOCTYPE svg PUBLIC "-//W3C//DTD SVG 1.1//EN" "http://www.w3.org/Graphics/SVG/1.1/DTD/svg11.dtd">
<svg version="1.1" id="Capa_1" xmlns="http://www.w3.org/2000/svg" xmlns:xlink="http://www.w3.org/1999/xlink" x="0px" y="0px"
	 width="32px" height="32px" viewBox="0 0 32 32" enable-background="new 0 0 32 32" xml:space="preserve">
<path fill="#BFBFBF" d="M5.5,13C5.5,7.201,10.201,2.5,16,2.5S26.5,7.201,26.5,13S19.799,23.5,14,23.5S5.5,18.799,5.5,13z"/>
<path fill="#ACF0F2" d="M7.5,6.5c0,0,10,0,10,5c0,4-3,9-10,9C7.5,20.5,2.813,13.656,7.5,6.5z"/>
<path fill="none" stroke="#FFFFFF" stroke-linecap="round" stroke-miterlimit="10" d="M8.5,14c0,0-1-5,3-7"/>
<path fill="#AAAAAA" d="M12.5,23.5l-2,5c0,0,0,1,1,1s13-2,15-8l-2-3C24.5,18.5,19.666,24.104,12.5,23.5z"/>
<path fill="none" stroke="#4D5152" stroke-miterlimit="10" d="M5.5,13C5.5,7.201,10.201,2.5,16,2.5S26.5,7.201,26.5,13
	S19.799,23.5,14,23.5S5.5,18.799,5.5,13z"/>
<path fill="none" stroke="#4D5152" stroke-miterlimit="10" d="M7.5,6.5c0,0,10,0,10,5c0,4-3,9-10,9"/>
<path fill="#FF61E1" d="M20,12c0,0,0-2,2-2s2,2,2,2v2c0,0,0,2-2,2s-2-2-2-2V12z"/>
<path fill="none" stroke="#4D5152" stroke-miterlimit="10" d="M20,12c0,0,0-2,2-2s2,2,2,2v2c0,0,0,2-2,2s-2-2-2-2V12z"/>
<path fill="none" stroke="#4D5152" stroke-linecap="round" stroke-linejoin="round" stroke-miterlimit="10" d="M12.5,23.5l-2,5
	c0,0,0,1,1,1s13-2,15-8l-2-3"/>
<line fill="none" stroke="#4D5152" stroke-linecap="round" stroke-miterlimit="10" x1="19.5" y1="18.5" x2="24.5" y2="18.5"/>
<line fill="none" stroke="#4D5152" stroke-linecap="round" stroke-miterlimit="10" x1="18.5" y1="20.5" x2="22.155" y2="20.5"/>
</svg>
