<?xml version="1.0" encoding="utf-8"?>
<!-- Generator: Adobe Illustrator 16.0.0, SVG Export Plug-In . SVG Version: 6.00 Build 0)  -->
<!DOCTYPE svg PUBLIC "-//W3C//DTD SVG 1.1//EN" "http://www.w3.org/Graphics/SVG/1.1/DTD/svg11.dtd">
<svg version="1.1" id="Capa_1" xmlns="http://www.w3.org/2000/svg" xmlns:xlink="http://www.w3.org/1999/xlink" x="0px" y="0px"
	 width="32px" height="32px" viewBox="0 0 32 32" enable-background="new 0 0 32 32" xml:space="preserve">
<path fill="#A4FFBE" d="M13.879,21.742c-0.384,0-0.768-0.146-1.061-0.439c-0.581-0.58-1.541-1.54-2.121-2.121
	c-0.586-0.586-0.586-1.535,0-2.121L25.192,2.565c1.027-1.029,2.865-1.377,4.242,0c1.378,1.377,1.028,3.214,0,4.242L14.939,21.303
	C14.646,21.596,14.263,21.742,13.879,21.742z"/>
<polygon fill="#BFBFBF" points="1.858,26.605 6.101,22.363 7.515,22.363 8.929,20.949 8.222,20.242 9.636,18.828 11.758,18.121 
	13.879,20.242 9.636,24.484 9.636,25.898 5.394,30.142 "/>
<path fill="#75EA9C" d="M11.758,18.121c0.707-0.707,14.495-14.496,14.495-14.496s1.061-1.061,2.121,0s0,2.121,0,2.121L13.879,20.242
	"/>
<line fill="none" stroke="#4D5152" stroke-linecap="square" stroke-miterlimit="10" x1="3.979" y1="25.899" x2="6.101" y2="28.021"/>
<line fill="none" stroke="#4D5152" stroke-linecap="square" stroke-miterlimit="10" x1="7.515" y1="22.363" x2="9.636" y2="24.484"/>
<polygon fill="none" stroke="#4D5152" stroke-linecap="square" stroke-miterlimit="10" points="1.858,26.605 6.101,22.363 
	7.515,22.363 8.929,20.949 8.222,20.242 9.636,18.828 11.758,18.121 13.879,20.242 9.636,24.484 9.636,25.898 5.394,30.142 "/>
<path fill="none" stroke="#4D5152" stroke-linecap="square" stroke-miterlimit="10" d="M11.758,18.121
	c0.707-0.707,14.495-14.496,14.495-14.496s1.061-1.061,2.121,0s0,2.121,0,2.121L13.879,20.242"/>
<line fill="none" stroke="#4D5152" stroke-linecap="square" stroke-miterlimit="10" x1="5.394" y1="24.485" x2="7.515" y2="26.606"/>
</svg>
