<?xml version="1.0" encoding="utf-8"?>
<!-- Generator: Adobe Illustrator 16.0.0, SVG Export Plug-In . SVG Version: 6.00 Build 0)  -->
<!DOCTYPE svg PUBLIC "-//W3C//DTD SVG 1.1//EN" "http://www.w3.org/Graphics/SVG/1.1/DTD/svg11.dtd">
<svg version="1.1" id="Capa_1" xmlns="http://www.w3.org/2000/svg" xmlns:xlink="http://www.w3.org/1999/xlink" x="0px" y="0px"
	 width="32px" height="32px" viewBox="0 0 32 32" enable-background="new 0 0 32 32" xml:space="preserve">
<g>
	<path fill="#F27C7C" d="M29.5,16c0,2.31-0.59,4.49-1.61,6.39C25.61,26.62,21.13,29.5,16,29.5C8.56,29.5,2.5,23.44,2.5,16
		c0-5.13,2.88-9.61,7.11-11.89C11.51,3.09,13.69,2.5,16,2.5C23.44,2.5,29.5,8.56,29.5,16z"/>
</g>
<g>
	<path fill="#4D5152" d="M16,3c7.168,0,13,5.832,13,13c0,7.168-5.832,13-13,13C8.832,29,3,23.168,3,16C3,8.832,8.832,3,16,3 M16,2
		C8.268,2,2,8.268,2,16c0,7.732,6.268,14,14,14c7.732,0,14-6.268,14-14C30,8.268,23.732,2,16,2L16,2z"/>
</g>
<g>
	<path fill="#EF6565" d="M10.5,27C9.122,27,8,25.879,8,24.5S9.122,22,10.5,22s2.5,1.121,2.5,2.5S11.878,27,10.5,27z"/>
</g>
<g>
	<circle fill="#EF6565" cx="5" cy="15" r="1.5"/>
</g>
<g>
	<circle fill="#EF6565" cx="14" cy="21" r="1.5"/>
</g>
<g>
	<circle fill="#EF6565" cx="16" cy="27" r="1.5"/>
</g>
<g>
	<circle fill="#EF6565" cx="21" cy="25" r="2"/>
</g>
<g>
	<circle fill="#EF6565" cx="7" cy="20" r="2"/>
</g>
</svg>
