<?xml version="1.0" encoding="utf-8"?>
<!-- Generator: Adobe Illustrator 16.0.0, SVG Export Plug-In . SVG Version: 6.00 Build 0)  -->
<!DOCTYPE svg PUBLIC "-//W3C//DTD SVG 1.1//EN" "http://www.w3.org/Graphics/SVG/1.1/DTD/svg11.dtd">
<svg version="1.1" id="Capa_1" xmlns="http://www.w3.org/2000/svg" xmlns:xlink="http://www.w3.org/1999/xlink" x="0px" y="0px"
	 width="32px" height="32px" viewBox="0 0 32 32" enable-background="new 0 0 32 32" xml:space="preserve">
<g>
	<path fill="#BFBFBF" d="M29.5,16c0,2.09-0.48,4.07-1.33,5.84C25.99,26.36,21.35,29.5,16,29.5C8.56,29.5,2.5,23.44,2.5,16
		c0-5.99,3.92-11.08,9.33-12.84C13.14,2.73,14.55,2.5,16,2.5C23.44,2.5,29.5,8.56,29.5,16z"/>
</g>
<path fill="#AAAAAA" d="M29.5,16c0,2.09-0.48,4.07-1.33,5.84c-1.31,0.43-2.72,0.66-4.17,0.66c-7.44,0-13.5-6.06-13.5-13.5
	c0-2.09,0.48-4.07,1.33-5.84C13.14,2.73,14.55,2.5,16,2.5C23.44,2.5,29.5,8.56,29.5,16z"/>
<g>
	<path fill="#4D5152" d="M16,3c7.168,0,13,5.832,13,13c0,7.168-5.832,13-13,13C8.832,29,3,23.168,3,16C3,8.832,8.832,3,16,3 M16,2
		C8.268,2,2,8.268,2,16c0,7.732,6.268,14,14,14c7.732,0,14-6.268,14-14C30,8.268,23.732,2,16,2L16,2z"/>
</g>
<g>
	<circle fill="#AAAAAA" cx="5.5" cy="12" r="1"/>
</g>
<g>
	<circle fill="#AAAAAA" cx="7.5" cy="15" r="1.5"/>
</g>
<g>
	<circle fill="#AAAAAA" cx="20.5" cy="25" r="1.5"/>
</g>
<g>
	<circle fill="#AAAAAA" cx="16.5" cy="26" r="1.5"/>
</g>
<path fill="none" stroke="#4D5152" stroke-miterlimit="10" d="M28.17,21.841C26.856,22.269,25.455,22.5,24,22.5
	c-7.443,0-13.5-6.056-13.5-13.5c0-2.09,0.478-4.071,1.33-5.84"/>
</svg>
