<?xml version="1.0" encoding="utf-8"?>
<!-- Generator: Adobe Illustrator 16.0.0, SVG Export Plug-In . SVG Version: 6.00 Build 0)  -->
<!DOCTYPE svg PUBLIC "-//W3C//DTD SVG 1.1//EN" "http://www.w3.org/Graphics/SVG/1.1/DTD/svg11.dtd">
<svg version="1.1" id="Capa_1" xmlns="http://www.w3.org/2000/svg" xmlns:xlink="http://www.w3.org/1999/xlink" x="0px" y="0px"
	 width="32px" height="32px" viewBox="0 0 32 32" enable-background="new 0 0 32 32" xml:space="preserve">
<g>
	<path fill="#BFBFBF" d="M16,29.5C8.556,29.5,2.5,23.444,2.5,16C2.5,8.556,8.556,2.5,16,2.5c7.444,0,13.5,6.056,13.5,13.5
		C29.5,23.444,23.444,29.5,16,29.5z"/>
</g>
<g>
	<path fill="#4D5152" d="M16,3c7.168,0,13,5.832,13,13c0,7.168-5.832,13-13,13C8.832,29,3,23.168,3,16C3,8.832,8.832,3,16,3 M16,2
		C8.268,2,2,8.268,2,16c0,7.732,6.268,14,14,14c7.732,0,14-6.268,14-14C30,8.268,23.732,2,16,2L16,2z"/>
</g>
<g>
	<path fill="#AAAAAA" d="M12.5,13C10.57,13,9,11.43,9,9.5S10.57,6,12.5,6S16,7.57,16,9.5S14.43,13,12.5,13z"/>
</g>
<g>
	<circle fill="#AAAAAA" cx="6" cy="14" r="1.5"/>
</g>
<g>
	<circle fill="#AAAAAA" cx="11" cy="18" r="2.5"/>
</g>
</svg>
