<?xml version="1.0" encoding="utf-8"?>
<!-- Generator: Adobe Illustrator 16.0.0, SVG Export Plug-In . SVG Version: 6.00 Build 0)  -->
<!DOCTYPE svg PUBLIC "-//W3C//DTD SVG 1.1//EN" "http://www.w3.org/Graphics/SVG/1.1/DTD/svg11.dtd">
<svg version="1.1" id="Capa_1" xmlns="http://www.w3.org/2000/svg" xmlns:xlink="http://www.w3.org/1999/xlink" x="0px" y="0px"
	 width="32px" height="32px" viewBox="0 0 32 32" enable-background="new 0 0 32 32" xml:space="preserve">
<path fill="#FF61E1" d="M31,16c0,0.72-0.05,1.43-0.15,2.12c-0.93,6.59-6.14,11.8-12.729,12.729C17.43,30.95,16.72,31,16,31
	c-1.93,0-3.78-0.37-5.48-1.04C8.58,29.2,6.84,28.05,5.4,26.6c-1.45-1.439-2.6-3.18-3.36-5.119C1.37,19.78,1,17.93,1,16
	c0-0.72,0.05-1.43,0.15-2.12C2.08,7.29,7.29,2.08,13.88,1.15C14.57,1.05,15.28,1,16,1c1.93,0,3.78,0.37,5.48,1.04
	C23.42,2.8,25.16,3.95,26.6,5.4c1.45,1.44,2.601,3.18,3.36,5.12C30.63,12.22,31,14.07,31,16z"/>
<path fill="none" stroke="#4D5152" stroke-linecap="round" stroke-linejoin="round" stroke-miterlimit="10" d="M1.5,16.5
	c0,0,0-3,3-3s3,3,3,3s3,0,3,3c0,0,3,0,3,3"/>
<path fill="none" stroke="#4D5152" stroke-linecap="round" stroke-linejoin="round" stroke-miterlimit="10" d="M22.5,19.5
	c0,0,0-3-3-3s-3,3-3,3s-3,0-3,3c0,0-3,0-3,3"/>
<path fill="none" stroke="#4D5152" stroke-linecap="round" stroke-linejoin="round" stroke-miterlimit="10" d="M27.748,7.571
	C25.5,8.025,25.5,10.5,25.5,10.5s-3,0-3,3c0,0-3,0-3,3"/>
<path fill="none" stroke="#4D5152" stroke-linecap="round" stroke-linejoin="round" stroke-miterlimit="10" d="M25.5,17.5
	c0,0-3,0-3,3c0,0-3,0-3,3"/>
<path fill="none" stroke="#4D5152" stroke-linecap="round" stroke-linejoin="round" stroke-miterlimit="10" d="M26.5,22.5
	c0,0-3,0-3,3c0,0-3,0-3,3"/>
<path fill="none" stroke="#4D5152" stroke-linecap="round" stroke-linejoin="round" stroke-miterlimit="10" d="M16.5,7.5
	c0,0,3,0,3,3c0,0,3,0,3,3"/>
<path fill="none" stroke="#4D5152" stroke-linecap="round" stroke-linejoin="round" stroke-miterlimit="10" d="M4.5,7.5c3,0,3,3,3,3
	s3,0,3,3c0,0,3,0,3,3"/>
<path fill="none" stroke="#4D5152" stroke-linecap="round" stroke-linejoin="round" stroke-miterlimit="10" d="M13.5,4.5
	c0,0-3,0-3,3c0,0-3,0-3,3"/>
<path fill="none" stroke="#4D5152" stroke-linecap="round" stroke-linejoin="round" stroke-miterlimit="10" d="M7.5,22.5
	c0,0,3,0,3,3c0,0,3,0,3,3"/>
<g>
	<path fill="#4D5152" d="M16,1.938c7.72,0,14,6.28,14,14s-6.28,14-14,14s-14-6.28-14-14S8.28,1.938,16,1.938 M16,0.938
		c-8.284,0-15,6.716-15,15s6.716,15,15,15s15-6.716,15-15S24.284,0.938,16,0.938L16,0.938z"/>
</g>
<circle fill="#FF80ED" cx="13" cy="10" r="1.5"/>
<circle fill="#FF80ED" cx="22" cy="6" r="1.5"/>
<circle fill="#FF80ED" cx="16" cy="14" r="1"/>
<circle fill="#FF80ED" cx="8" cy="20" r="1"/>
<circle fill="#FF80ED" cx="27" cy="20" r="1"/>
<circle fill="#FF80ED" cx="16" cy="4" r="1"/>
<circle fill="#FF80ED" cx="27" cy="14" r="2"/>
<circle fill="#FF80ED" cx="17" cy="25" r="1.5"/>
<circle fill="#FF80ED" cx="4" cy="17" r="1.5"/>
<circle fill="#FF80ED" cx="5" cy="11" r="1"/>
</svg>
