<?xml version="1.0" encoding="utf-8"?>
<!-- Generator: Adobe Illustrator 16.0.0, SVG Export Plug-In . SVG Version: 6.00 Build 0)  -->
<!DOCTYPE svg PUBLIC "-//W3C//DTD SVG 1.1//EN" "http://www.w3.org/Graphics/SVG/1.1/DTD/svg11.dtd">
<svg version="1.1" id="Capa_1" xmlns="http://www.w3.org/2000/svg" xmlns:xlink="http://www.w3.org/1999/xlink" x="0px" y="0px"
	 width="32px" height="32px" viewBox="0 0 32 32" enable-background="new 0 0 32 32" xml:space="preserve">
<path fill="#67DDE0" d="M28,16v2H4c0,0,0-1.66,0-2C4,9.37,9.37,4,16,4S28,9.37,28,16z"/>
<path fill="#BFBFBF" d="M4.5,19.5v-2c0,0,0-1,1-1h21c0,0,1,0,1,1v2c0,0,0,1-1,1s-21,0-21,0S4.5,20.5,4.5,19.5z"/>
<path fill="#ACF0F2" d="M6.5,16.5c0,0,0-10,9.5-10s9.5,10,9.5,10H6.5z"/>
<polygon fill="#FFFFFF" points="7.5,20.5 9.5,23.5 22.5,23.5 24.5,20.5 "/>
<path fill="#BFBFBF" d="M8.5,21.5c0,0-6,2-6,8c0,0,0,1,1,1h8c0,0,1,0,1-1s-6-3-3-6"/>
<path fill="#BFBFBF" d="M23.5,21.5c0,0,6,2,6,8c0,0,0,1-1,1h-8c0,0-1,0-1-1s6-3,3-6"/>
<path fill="none" stroke="#4D5152" stroke-miterlimit="10" d="M4.5,19.5v-2c0,0,0-1,1-1h21c0,0,1,0,1,1v2c0,0,0,1-1,1s-21,0-21,0
	S4.5,20.5,4.5,19.5z"/>
<path fill="none" stroke="#4D5152" stroke-miterlimit="10" d="M6.5,16.5c0,0,0-10,9.5-10s9.5,10,9.5,10H6.5z"/>
<polygon fill="none" stroke="#4D5152" stroke-miterlimit="10" points="7.5,20.5 9.5,23.5 22.5,23.5 24.5,20.5 "/>
<path fill="none" stroke="#4D5152" stroke-miterlimit="10" d="M8.5,21.5c0,0-6,2-6,8c0,0,0,1,1,1h8c0,0,1,0,1-1s-6-3-3-6"/>
<path fill="none" stroke="#4D5152" stroke-miterlimit="10" d="M23.5,21.5c0,0,6,2,6,8c0,0,0,1-1,1h-8c0,0-1,0-1-1s6-3,3-6"/>
<line fill="none" stroke="#4D5152" stroke-linecap="round" stroke-linejoin="round" stroke-miterlimit="10" x1="9.5" y1="2.5" x2="9.5" y2="4.5"/>
<line fill="none" stroke="#4D5152" stroke-linecap="round" stroke-linejoin="round" stroke-miterlimit="10" x1="8.5" y1="3.5" x2="10.5" y2="3.5"/>
<line fill="none" stroke="#4D5152" stroke-linecap="round" stroke-linejoin="round" stroke-miterlimit="10" x1="29.5" y1="9.5" x2="29.5" y2="11.5"/>
<line fill="none" stroke="#4D5152" stroke-linecap="round" stroke-linejoin="round" stroke-miterlimit="10" x1="28.5" y1="10.5" x2="30.5" y2="10.5"/>
<line fill="none" stroke="#4D5152" stroke-linecap="round" stroke-linejoin="round" stroke-miterlimit="10" x1="25.5" y1="2.5" x2="25.5" y2="6.5"/>
<line fill="none" stroke="#4D5152" stroke-linecap="round" stroke-linejoin="round" stroke-miterlimit="10" x1="23.5" y1="4.5" x2="27.5" y2="4.5"/>
<line fill="none" stroke="#4D5152" stroke-linecap="round" stroke-linejoin="round" stroke-miterlimit="10" x1="3.5" y1="5.5" x2="3.5" y2="9.5"/>
<line fill="none" stroke="#4D5152" stroke-linecap="round" stroke-linejoin="round" stroke-miterlimit="10" x1="1.5" y1="7.5" x2="5.5" y2="7.5"/>
</svg>
