<?xml version="1.0" encoding="utf-8"?>
<!-- Generator: Adobe Illustrator 16.0.0, SVG Export Plug-In . SVG Version: 6.00 Build 0)  -->
<!DOCTYPE svg PUBLIC "-//W3C//DTD SVG 1.1//EN" "http://www.w3.org/Graphics/SVG/1.1/DTD/svg11.dtd">
<svg version="1.1" id="Capa_1" xmlns="http://www.w3.org/2000/svg" xmlns:xlink="http://www.w3.org/1999/xlink" x="0px" y="0px"
	 width="32px" height="32px" viewBox="0 0 32 32" enable-background="new 0 0 32 32" xml:space="preserve">
<path fill="#BFBFBF" d="M5.5,9.5c0,0,0-2,2-2s16,0,16,0s2,0,2,2v10c0,0,0,2-2,2h-16c0,0-2,0-2-2V9.5z"/>
<circle fill="#67DDE0" cx="10" cy="13" r="2.5"/>
<circle fill="#67DDE0" cx="21" cy="13" r="2.5"/>
<path fill="#AAAAAA" d="M10.5,21.5v-3c0,0,0-1,1-1h8c0,0,1,0,1,1v3"/>
<path fill="#AAAAAA" d="M5.5,10.5h-1c0,0-1,0-1,1v6c0,0,0,1,1,1h1V10.5z"/>
<path fill="#AAAAAA" d="M25.5,10.5h1c0,0,1,0,1,1v6c0,0,0,1-1,1h-1V10.5z"/>
<rect x="11.5" y="21.5" fill="#BFBFBF" width="8" height="2"/>
<path fill="#AAAAAA" d="M4.5,30v-3.5c0-3,3-3,3-3h3h13c0,0,3,0,3,3V30"/>
<path fill="#FF61E1" d="M8.5,30v-2.5c0,0,0-1,1-1s12,0,12,0s1,0,1,1V30"/>
<line fill="none" stroke="#4D5152" stroke-miterlimit="10" x1="15.5" y1="5" x2="15.5" y2="7"/>
<circle fill="#67DDE0" cx="15.5" cy="3.5" r="2"/>
<path fill="none" stroke="#4D5152" stroke-miterlimit="10" d="M5.5,9.5c0,0,0-2,2-2s16,0,16,0s2,0,2,2v10c0,0,0,2-2,2h-16
	c0,0-2,0-2-2V9.5z"/>
<circle fill="none" stroke="#4D5152" stroke-miterlimit="10" cx="10" cy="13" r="2.5"/>
<circle fill="none" stroke="#4D5152" stroke-miterlimit="10" cx="21" cy="13" r="2.5"/>
<path fill="none" stroke="#4D5152" stroke-miterlimit="10" d="M10.5,21.5v-3c0,0,0-1,1-1h8c0,0,1,0,1,1v3"/>
<path fill="none" stroke="#4D5152" stroke-miterlimit="10" d="M5.5,10.5h-1c0,0-1,0-1,1v6c0,0,0,1,1,1h1V10.5z"/>
<path fill="none" stroke="#4D5152" stroke-miterlimit="10" d="M25.5,10.5h1c0,0,1,0,1,1v6c0,0,0,1-1,1h-1V10.5z"/>
<rect x="11.5" y="21.5" fill="none" stroke="#4D5152" stroke-miterlimit="10" width="8" height="2"/>
<path fill="none" stroke="#4D5152" stroke-miterlimit="10" d="M4.5,30v-3.5c0-3,3-3,3-3h3h13c0,0,3,0,3,3V30"/>
<path fill="none" stroke="#4D5152" stroke-miterlimit="10" d="M8.5,30v-2.5c0,0,0-1,1-1s12,0,12,0s1,0,1,1V30"/>
<line fill="none" stroke="#4D5152" stroke-miterlimit="10" x1="8.5" y1="28.5" x2="22.5" y2="28.5"/>
<line fill="none" stroke="#4D5152" stroke-miterlimit="10" x1="15.5" y1="5" x2="15.5" y2="7"/>
<circle fill="none" stroke="#4D5152" stroke-miterlimit="10" cx="15.5" cy="3.5" r="2"/>
</svg>
