<?xml version="1.0" encoding="utf-8"?>
<!-- Generator: Adobe Illustrator 16.0.0, SVG Export Plug-In . SVG Version: 6.00 Build 0)  -->
<!DOCTYPE svg PUBLIC "-//W3C//DTD SVG 1.1//EN" "http://www.w3.org/Graphics/SVG/1.1/DTD/svg11.dtd">
<svg version="1.1" id="Capa_1" xmlns="http://www.w3.org/2000/svg" xmlns:xlink="http://www.w3.org/1999/xlink" x="0px" y="0px"
	 width="32px" height="32px" viewBox="0 0 32 32" enable-background="new 0 0 32 32" xml:space="preserve">
<rect x="24.5" y="2.5" fill="#AAAAAA" width="6" height="10"/>
<rect x="24.5" y="20.5" fill="#AAAAAA" width="6" height="10"/>
<line fill="none" stroke="#4D5152" stroke-linecap="round" stroke-linejoin="round" stroke-miterlimit="10" x1="27.5" y1="2.5" x2="27.5" y2="30.5"/>
<rect x="14.5" y="2.5" fill="#FFFFFF" width="4" height="7"/>
<rect x="14.5" y="2.5" fill="#AAAAAA" width="4" height="2"/>
<line fill="none" stroke="#4D5152" stroke-miterlimit="10" x1="15" y1="4.5" x2="18" y2="4.5"/>
<rect x="24.5" y="2.5" fill="none" stroke="#4D5152" stroke-linecap="round" stroke-linejoin="round" stroke-miterlimit="10" width="6" height="10"/>
<rect x="24.5" y="20.5" fill="none" stroke="#4D5152" stroke-linecap="round" stroke-linejoin="round" stroke-miterlimit="10" width="6" height="10"/>
<polygon fill="#FFFFFF" points="13.5,9.5 19.5,9.5 19.5,11.5 18.5,12.5 18.5,15.5 17.5,16.5 18.5,17.5 18.5,21.5 19.5,22.5 
	19.5,24.5 13.5,24.5 13.5,22.5 14.5,21.5 14.5,17.5 15.5,16.5 14.5,15.5 14.5,12.5 13.5,11.5 "/>
<polygon fill="none" stroke="#4D5152" stroke-miterlimit="10" points="13.5,9.5 19.5,9.5 19.5,11.5 18.5,12.5 18.5,15.5 17.5,16.5 
	18.5,17.5 18.5,21.5 19.5,22.5 19.5,24.5 13.5,24.5 13.5,22.5 14.5,21.5 14.5,17.5 15.5,16.5 14.5,15.5 14.5,12.5 13.5,11.5 "/>
<polygon fill="#AAAAAA" points="14.5,17.5 5.5,17.5 5.5,15.5 27.5,15.5 27.5,17.5 "/>
<polygon fill="none" stroke="#4D5152" stroke-miterlimit="10" points="14.5,17.5 5.5,17.5 5.5,15.5 27.5,15.5 27.5,17.5 "/>
<line fill="none" stroke="#4D5152" stroke-linecap="round" stroke-linejoin="round" stroke-miterlimit="10" x1="9.5" y1="14.5" x2="9.5" y2="18.5"/>
<line fill="none" stroke="#4D5152" stroke-linecap="round" stroke-linejoin="round" stroke-miterlimit="10" x1="25.5" y1="14.5" x2="25.5" y2="18.5"/>
<rect x="14.5" y="2.5" fill="none" stroke="#4D5152" stroke-miterlimit="10" width="4" height="7"/>
<path fill="#FFFFFF" d="M11.5,27.5c0,0,0-1,1-1s2,0,2,0l2,1v1l-2,1h-2c0,0-1,0-1-1S11.5,27.5,11.5,27.5z"/>
<path fill="#FFFFFF" d="M21.5,27.5c0,0,0-1-1-1s-2,0-2,0l-2,1v1l2,1h2c0,0,1,0,1-1S21.5,27.5,21.5,27.5z"/>
<path fill="none" stroke="#4D5152" stroke-miterlimit="10" d="M11.5,27.5c0,0,0-1,1-1s2,0,2,0l2,1v1l-2,1h-2c0,0-1,0-1-1
	S11.5,27.5,11.5,27.5z"/>
<path fill="none" stroke="#4D5152" stroke-miterlimit="10" d="M21.5,27.5c0,0,0-1-1-1s-2,0-2,0l-2,1v1l2,1h2c0,0,1,0,1-1
	S21.5,27.5,21.5,27.5z"/>
<line fill="none" stroke="#4D5152" stroke-miterlimit="10" x1="16.5" y1="24" x2="16.5" y2="27"/>
<circle fill="#67DDE0" cx="4.5" cy="16.5" r="3"/>
<circle fill="none" stroke="#4D5152" stroke-miterlimit="10" cx="4.5" cy="16.5" r="3"/>
<line fill="none" stroke="#4D5152" stroke-miterlimit="10" x1="25" y1="7.5" x2="30" y2="7.5"/>
<line fill="none" stroke="#4D5152" stroke-miterlimit="10" x1="25" y1="25.5" x2="30" y2="25.5"/>
<line fill="none" stroke="#4D5152" stroke-miterlimit="10" x1="14" y1="21.5" x2="19" y2="21.5"/>
</svg>
