<?xml version="1.0" encoding="utf-8"?>
<!-- Generator: Adobe Illustrator 16.0.0, SVG Export Plug-In . SVG Version: 6.00 Build 0)  -->
<!DOCTYPE svg PUBLIC "-//W3C//DTD SVG 1.1//EN" "http://www.w3.org/Graphics/SVG/1.1/DTD/svg11.dtd">
<svg version="1.1" id="Capa_1" xmlns="http://www.w3.org/2000/svg" xmlns:xlink="http://www.w3.org/1999/xlink" x="0px" y="0px"
	 width="32px" height="32px" viewBox="0 0 32 32" enable-background="new 0 0 32 32" xml:space="preserve">
<polygon fill="#FFFFFF" points="12.5,28.5 19.5,28.5 19.5,10.5 18.5,8.5 18.5,4.5 16,1.5 13.5,4.5 13.5,8.5 12.5,10.5 "/>
<rect x="12.5" y="21" fill="#BFBFBF" width="7" height="1"/>
<polygon fill="#FFFFFF" points="12.5,30.5 12.5,16.5 10.5,13.5 8.5,16.5 8.5,30.5 "/>
<polygon fill="#FFFFFF" points="12.5,16.5 12.5,27.5 8.5,27.5 8.5,16.5 10.5,13.5 "/>
<polygon fill="#FFFFFF" points="23.5,16.5 23.5,27.5 19.5,27.5 19.5,16.5 21.5,13.5 "/>
<rect x="8.5" y="27.5" fill="#BFBFBF" width="4" height="3"/>
<rect x="19.5" y="27.5" fill="#BFBFBF" width="4" height="3"/>
<line fill="none" stroke="#4D5152" stroke-miterlimit="10" x1="12.5" y1="20.5" x2="19.5" y2="20.5"/>
<path fill="none" stroke="#4D5152" stroke-miterlimit="10" d="M13.5,8.5c0,0,0.5,1,2.5,1s2.5-1,2.5-1"/>
<line fill="#FFFFFF" stroke="#4D5152" stroke-miterlimit="10" x1="8.5" y1="27.5" x2="12.5" y2="27.5"/>
<line fill="none" stroke="#4D5152" stroke-miterlimit="10" x1="19.5" y1="27.5" x2="23.5" y2="27.5"/>
<polygon fill="none" stroke="#4D5152" stroke-miterlimit="10" points="12.5,28.5 19.5,28.5 19.5,10.5 18.5,8.5 18.5,4.5 16,1.5 
	13.5,4.5 13.5,8.5 12.5,10.5 "/>
<line fill="none" stroke="#4D5152" stroke-miterlimit="10" x1="12.5" y1="20.5" x2="19.5" y2="20.5"/>
<path fill="none" stroke="#4D5152" stroke-miterlimit="10" d="M13.5,8.5c0,0,0.5,1,2.5,1s2.5-1,2.5-1"/>
<line fill="#FFFFFF" stroke="#4D5152" stroke-miterlimit="10" x1="8.5" y1="27.5" x2="12.5" y2="27.5"/>
<line fill="none" stroke="#4D5152" stroke-miterlimit="10" x1="19.5" y1="27.5" x2="23.5" y2="27.5"/>
<polygon fill="none" stroke="#4D5152" stroke-miterlimit="10" points="12.5,30.5 12.5,16.5 10.5,13.5 8.5,16.5 8.5,30.5 "/>
<polygon fill="none" stroke="#4D5152" stroke-miterlimit="10" points="23.5,30.5 23.5,16.5 21.5,13.5 19.5,16.5 19.5,30.5 "/>
<polygon fill="none" stroke="#4D5152" stroke-miterlimit="10" points="12.5,30.5 12.5,16.5 10.5,13.5 8.5,16.5 8.5,30.5 "/>
<polygon fill="none" stroke="#4D5152" stroke-miterlimit="10" points="23.5,30.5 23.5,16.5 21.5,13.5 19.5,16.5 19.5,30.5 "/>
<g>
	<circle fill="#67DDE0" cx="16" cy="6" r="1.5"/>
</g>
</svg>
