<?xml version="1.0" encoding="utf-8"?>
<!-- Generator: Adobe Illustrator 16.0.0, SVG Export Plug-In . SVG Version: 6.00 Build 0)  -->
<!DOCTYPE svg PUBLIC "-//W3C//DTD SVG 1.1//EN" "http://www.w3.org/Graphics/SVG/1.1/DTD/svg11.dtd">
<svg version="1.1" id="Capa_1" xmlns="http://www.w3.org/2000/svg" xmlns:xlink="http://www.w3.org/1999/xlink" x="0px" y="0px"
	 width="32px" height="32px" viewBox="0 0 32 32" enable-background="new 0 0 32 32" xml:space="preserve">
<path fill="#FFD878" d="M6.5,26.5c6-1.188,10,4,10,4s4-5.188,10-4c-1.186-6.001,4-10,4-10s-5.187-4-4-10c0,0-6,1-10-4
	c-4,5-10,4-10,4s0.999,6-4,10C7.5,20.5,6.5,26.5,6.5,26.5z"/>
<circle fill="#FFE4A9" cx="16.5" cy="16.5" r="8"/>
<circle fill="none" stroke="#4D5152" stroke-miterlimit="10" cx="16.5" cy="16.5" r="8"/>
<path fill="none" stroke="#4D5152" stroke-miterlimit="10" d="M6.5,26.5c6-1.188,10,4,10,4s4-5.188,10-4c-1.186-6.001,4-10,4-10
	s-5.187-4-4-10c0,0-6,1-10-4c-4,5-10,4-10,4s0.999,6-4,10C7.5,20.5,6.5,26.5,6.5,26.5z"/>
</svg>
