<?xml version="1.0" encoding="utf-8"?>
<!-- Generator: Adobe Illustrator 16.0.0, SVG Export Plug-In . SVG Version: 6.00 Build 0)  -->
<!DOCTYPE svg PUBLIC "-//W3C//DTD SVG 1.1//EN" "http://www.w3.org/Graphics/SVG/1.1/DTD/svg11.dtd">
<svg version="1.1" id="Capa_1" xmlns="http://www.w3.org/2000/svg" xmlns:xlink="http://www.w3.org/1999/xlink" x="0px" y="0px"
	 width="32px" height="32px" viewBox="0 0 32 32" enable-background="new 0 0 32 32" xml:space="preserve">
<g>
	<path fill="#67DDE0" d="M25.257,4.763l0.658,0.007c0.929,0.009,2.596,0.438,3.328,3.202c0.783,2.921-0.639,4.094-1.286,4.462
		l-0.563,0.32L25.257,4.763z"/>
	<polygon fill="#AAAAAA" points="14.729,8.708 25.251,4.832 27.355,12.679 20.086,13.943 16.305,14.59 	"/>
</g>
<g>
	<path fill="#BFBFBF" d="M14.5,17.5c-1.579,0-2-1.257-2-2v-1.205l3.532-0.662l0.261,0.967l3.207-0.544V16.5
		c0,0.581-0.384,0.973-0.978,0.999L18.511,17.5H14.5z"/>
</g>
<g>
	<polygon fill="#AAAAAA" points="2.498,14.103 4.404,13.428 5.001,15.67 3.017,16.048 	"/>
	<polygon fill="#FFFFFF" points="4.418,13.422 14.985,9.698 16.021,13.612 5.016,15.677 	"/>
</g>
<g>
	<path fill="#AAAAAA" d="M14.5,19.5c-0.581,0-0.973-0.384-1-0.978l0-1.174l0.599,0.121c0.12,0.024,0.256,0.03,0.401,0.03h3v1
		c0,0.582-0.384,0.975-0.979,1h-0.01H14.5z"/>
</g>
<path fill="none" stroke="#4D5152" stroke-width="1.0165" stroke-linejoin="round" stroke-miterlimit="10" d="M16.299,14.6
	l11.063-1.913c0,0,2.944-0.789,1.894-4.717c-1.053-3.928-3.999-3.138-3.999-3.138L14.72,8.708L16.299,14.6z"/>
<polyline fill="none" stroke="#4D5152" stroke-width="1.0165" stroke-linejoin="round" stroke-miterlimit="10" points="14.983,9.69 
	2.482,14.092 3.008,16.056 16.035,13.617 "/>
<path fill="none" stroke="#4D5152" stroke-miterlimit="10" d="M12.5,14.5v1c0,0,0,2,2,2c1,0,4,0,4,0s1,0,1-1V14"/>
<line fill="none" stroke="#4D5152" stroke-width="1.0165" stroke-linecap="round" stroke-miterlimit="10" x1="24.994" y1="3.85" x2="27.627" y2="13.669"/>
<line fill="none" stroke="#4D5152" stroke-width="1.0165" stroke-linecap="round" stroke-miterlimit="10" x1="4.183" y1="12.583" x2="5.234" y2="16.511"/>
<line fill="none" stroke="#4D5152" stroke-miterlimit="10" x1="15.5" y1="20" x2="15.5" y2="29"/>
<line fill="none" stroke="#4D5152" stroke-miterlimit="10" x1="14" y1="29.5" x2="17" y2="29.5"/>
<polyline fill="none" stroke="#4D5152" stroke-miterlimit="10" points="12.5,29.5 10.5,29.5 15.5,19.5 "/>
<polyline fill="none" stroke="#4D5152" stroke-miterlimit="10" points="18.5,29.5 20.5,29.5 15.5,19.5 "/>
<path fill="none" stroke="#4D5152" stroke-miterlimit="10" d="M13.5,17.5v1c0,0,0,1,1,1s2,0,2,0s1,0,1-1v-1"/>
</svg>
