<?xml version="1.0" encoding="utf-8"?>
<!-- Generator: Adobe Illustrator 16.0.0, SVG Export Plug-In . SVG Version: 6.00 Build 0)  -->
<!DOCTYPE svg PUBLIC "-//W3C//DTD SVG 1.1//EN" "http://www.w3.org/Graphics/SVG/1.1/DTD/svg11.dtd">
<svg version="1.1" id="Capa_1" xmlns="http://www.w3.org/2000/svg" xmlns:xlink="http://www.w3.org/1999/xlink" x="0px" y="0px"
	 width="32px" height="32px" viewBox="0 0 32 32" enable-background="new 0 0 32 32" xml:space="preserve">
<g>
	<path fill="#BFBFBF" d="M15.5,23.5c-4.003,0-8.991-0.668-12.056-3.547c-0.484-0.455-0.966-1.031-1.056-1.712
		c-0.132-0.994,0.88-1.712,1.628-2.147c0.431-0.25,4.209-2.032,4.509-1.513c1.831,3.167,6.643,3.309,9.798,2.655
		c1.402-0.29,2.878-0.889,3.774-2.06c0.322-0.421,0.281-0.712,0.863-0.575c0.729,0.171,1.45,0.385,2.153,0.641
		c1.141,0.415,3.43,1.249,3.509,2.735c0.064,1.193-1.207,2.186-2.087,2.777C23.364,22.89,19.241,23.5,15.5,23.5z"/>
</g>
<g>
	<path fill="#67DDE0" d="M15.5,25.5c-1.351,0-1.794-0.963-2.118-2.085c1.416,0.092,2.819,0.092,4.235,0
		C17.294,24.536,16.851,25.5,15.5,25.5z"/>
</g>
<g>
	<path fill="#67DDE0" d="M25.178,23.537c-0.849,0-1.358-0.618-1.878-1.188c1.33-0.519,2.559-1.129,3.75-1.916
		c0.111,0.499,0.279,1.016,0.171,1.529C27.031,22.862,26.08,23.537,25.178,23.537z"/>
</g>
<g>
	<path fill="#67DDE0" d="M5.573,23.54c-0.879,0-1.821-0.652-2.033-1.522c-0.144-0.591,0.083-1.153,0.255-1.709
		c1.16,0.81,2.365,1.435,3.675,1.966C6.962,22.887,6.452,23.54,5.573,23.54z"/>
</g>
<g>
	<path fill="#ACF0F2" d="M15.5,17.5c-1.972,0-4.164-0.287-5.783-1.517c-0.465-0.353-1.285-1.046-1.178-1.705
		c0.409-2.506,1.526-3.29,3.679-4.779c3.218-2.227,7.068-0.513,8.812,2.63c0.624,1.125,1.058,0.36,1.335,1.615
		c0.173,0.786,0.034,1.171-0.544,1.771C20.235,17.156,17.663,17.5,15.5,17.5z"/>
</g>
<path fill="none" stroke="#4D5152" stroke-linecap="round" stroke-miterlimit="10" d="M8.5,14.5c0,0,1-6,7-6s7,6,7,6s-1,3-7,3
	S8.5,14.5,8.5,14.5z"/>
<path fill="none" stroke="#4D5152" stroke-linecap="round" stroke-miterlimit="10" d="M22.5,14.5c0,0,5,1,6,3s-4,6-13,6s-14-4-13-6
	s6-3,6-3"/>
<path fill="none" stroke="#4D5152" stroke-linecap="round" stroke-miterlimit="10" d="M13.5,23.5c0,0,0,2,2,2s2-2,2-2"/>
<path fill="none" stroke="#4D5152" stroke-linecap="round" stroke-miterlimit="10" d="M23.5,22.5c0,0,1,1.732,2.732,0.732
	s0.732-2.732,0.732-2.732"/>
<path fill="none" stroke="#4D5152" stroke-linecap="round" stroke-miterlimit="10" d="M7.252,22.5c0,0-1,1.732-2.732,0.732
	S3.787,20.5,3.787,20.5"/>
<line fill="none" stroke="#4D5152" stroke-linecap="round" stroke-linejoin="round" stroke-miterlimit="10" x1="22.5" y1="25.5" x2="22.5" y2="29.5"/>
<line fill="none" stroke="#4D5152" stroke-linecap="round" stroke-linejoin="round" stroke-miterlimit="10" x1="20.5" y1="27.5" x2="24.5" y2="27.5"/>
<line fill="none" stroke="#4D5152" stroke-linecap="round" stroke-linejoin="round" stroke-miterlimit="10" x1="17.5" y1="2.5" x2="17.5" y2="6.5"/>
<line fill="none" stroke="#4D5152" stroke-linecap="round" stroke-linejoin="round" stroke-miterlimit="10" x1="15.5" y1="4.5" x2="19.5" y2="4.5"/>
<line fill="none" stroke="#4D5152" stroke-linecap="round" stroke-linejoin="round" stroke-miterlimit="10" x1="25.5" y1="8.5" x2="25.5" y2="10.5"/>
<line fill="none" stroke="#4D5152" stroke-linecap="round" stroke-linejoin="round" stroke-miterlimit="10" x1="24.5" y1="9.5" x2="26.5" y2="9.5"/>
<line fill="none" stroke="#4D5152" stroke-linecap="round" stroke-linejoin="round" stroke-miterlimit="10" x1="7.5" y1="5.5" x2="7.5" y2="7.5"/>
<line fill="none" stroke="#4D5152" stroke-linecap="round" stroke-linejoin="round" stroke-miterlimit="10" x1="6.5" y1="6.5" x2="8.5" y2="6.5"/>
<line fill="none" stroke="#4D5152" stroke-linecap="round" stroke-linejoin="round" stroke-miterlimit="10" x1="6.5" y1="26.5" x2="6.5" y2="28.5"/>
<line fill="none" stroke="#4D5152" stroke-linecap="round" stroke-linejoin="round" stroke-miterlimit="10" x1="5.5" y1="27.5" x2="7.5" y2="27.5"/>
</svg>
