<?xml version="1.0" encoding="utf-8"?>
<!-- Generator: Adobe Illustrator 16.0.0, SVG Export Plug-In . SVG Version: 6.00 Build 0)  -->
<!DOCTYPE svg PUBLIC "-//W3C//DTD SVG 1.1//EN" "http://www.w3.org/Graphics/SVG/1.1/DTD/svg11.dtd">
<svg version="1.1" id="Capa_1" xmlns="http://www.w3.org/2000/svg" xmlns:xlink="http://www.w3.org/1999/xlink" x="0px" y="0px"
	 width="32px" height="32px" viewBox="0 0 32 32" enable-background="new 0 0 32 32" xml:space="preserve">
<path fill="#AAAAAA" d="M29.74,17.5c0,0-4,7-11,7h-2.25c0,0-0.59,0-2.89,0c-7,0-11-7-11-7H29.74z"/>
<path fill="#FF61E1" d="M20.63,23.08h-8.91c0.13-0.59,0.54-1.58,1.95-1.58c2,0,5,0,5,0S20.38,21.5,20.63,23.08z"/>
<path fill="#FF80ED" d="M20.67,23.5v1h-9v-1c0,0,0-0.18,0.05-0.42h8.91C20.66,23.21,20.67,23.35,20.67,23.5z"/>
<path fill="#BFBFBF" d="M29.74,17.5H2.6c0,0,4-10,11-10c2.3,0,2.89,0,2.89,0h2.25C25.74,7.5,29.74,17.5,29.74,17.5z"/>
<path fill="#ACF0F2" d="M8.6,12.5c0,0,0-1,1-1c0,0,12,0,13,0s1,1,1,1v1c0,0,0,1-1,1s-12,0-13,0s-1-1-1-1V12.5z"/>
<path fill="none" stroke="#4D5152" stroke-miterlimit="10" d="M11.6,24.5v-1c0,0,0-2,2-2s5,0,5,0s2,0,2,2v1"/>
<path fill="none" stroke="#4D5152" stroke-miterlimit="10" d="M2.6,17.5c0,0,4,7,11,7c7,0-1.862,0,5.138,0c7,0,11-7,11-7
	s-4-10-11-10c-7,0,1.862,0-5.138,0C6.6,7.5,2.6,17.5,2.6,17.5z"/>
<line fill="none" stroke="#4D5152" stroke-miterlimit="10" x1="2.6" y1="17.5" x2="29.601" y2="17.5"/>
<path fill="none" stroke="#4D5152" stroke-miterlimit="10" d="M8.6,12.5c0,0,0-1,1-1c0,0,12,0,13,0s1,1,1,1v1c0,0,0,1-1,1
	s-12,0-13,0s-1-1-1-1V12.5z"/>
</svg>
