<?xml version="1.0" encoding="utf-8"?>
<!-- Generator: Adobe Illustrator 16.0.0, SVG Export Plug-In . SVG Version: 6.00 Build 0)  -->
<!DOCTYPE svg PUBLIC "-//W3C//DTD SVG 1.1//EN" "http://www.w3.org/Graphics/SVG/1.1/DTD/svg11.dtd">
<svg version="1.1" id="Capa_1" xmlns="http://www.w3.org/2000/svg" xmlns:xlink="http://www.w3.org/1999/xlink" x="0px" y="0px"
	 width="32px" height="32px" viewBox="0 0 32 32" enable-background="new 0 0 32 32" xml:space="preserve">
<circle fill="#BFBFBF" cx="16" cy="16" r="11.5"/>
<rect x="14.5" y="17.5" fill="#AAAAAA" width="3" height="10"/>
<path fill="#75EA9C" d="M11.5,26.5v-2c0-5-5-5-5-5H5C5,19.5,6.216,24.51,11.5,26.5z"/>
<path fill="#75EA9C" d="M26.5,19.5h-1c0,0-5,0-5,5v2C20.5,26.5,26.094,24,26.5,19.5z"/>
<polygon fill="#ACF0F2" points="8.5,15.5 9.5,11.5 22.5,11.5 23.5,15.5 "/>
<polygon fill="none" stroke="#4D5152" stroke-width="0.92" stroke-miterlimit="10" points="8.5,15.5 9.5,11.5 22.5,11.5 23.5,15.5 
	"/>
<circle fill="none" stroke="#4D5152" stroke-width="0.92" stroke-miterlimit="10" cx="16" cy="16" r="11.5"/>
<line fill="none" stroke="#4D5152" stroke-width="0.92" stroke-miterlimit="10" x1="14.5" y1="17.5" x2="14.5" y2="27"/>
<line fill="none" stroke="#4D5152" stroke-width="0.92" stroke-miterlimit="10" x1="17.5" y1="17.5" x2="17.5" y2="27"/>
<line fill="none" stroke="#4D5152" stroke-width="0.92" stroke-miterlimit="10" x1="7.5" y1="8.5" x2="24.5" y2="8.5"/>
<line fill="none" stroke="#4D5152" stroke-width="0.92" stroke-miterlimit="10" x1="5" y1="17.5" x2="27" y2="17.5"/>
<path fill="none" stroke="#4D5152" stroke-width="0.92" stroke-miterlimit="10" d="M27,19.5h-1.5c0,0-5,0-5,5v2"/>
<path fill="none" stroke="#4D5152" stroke-width="0.92" stroke-miterlimit="10" d="M5,19.5h1.5c0,0,5,0,5,5v2"/>
</svg>
